<?xml version="1.0" encoding="UTF-8"?>
<svg xmlns="http://www.w3.org/2000/svg" viewBox="-30 -30 60 60" width="60" height="60" role="img" aria-label="Tim Raysby brand mark">
  <title>Tim Raysby</title>
  <desc>Six-point Nexus Green node-burst asterisk, the brand mark for Tim Raysby</desc>
  <g fill="#4FBF7B">
    <path d="M 0 -4 L 4 -24 L 0 -28 L -4 -24 Z"/>
    <g transform="rotate(60)"><path d="M 0 -4 L 4 -24 L 0 -28 L -4 -24 Z"/></g>
    <g transform="rotate(120)"><path d="M 0 -4 L 4 -24 L 0 -28 L -4 -24 Z"/></g>
    <g transform="rotate(180)"><path d="M 0 -4 L 4 -24 L 0 -28 L -4 -24 Z"/></g>
    <g transform="rotate(240)"><path d="M 0 -4 L 4 -24 L 0 -28 L -4 -24 Z"/></g>
    <g transform="rotate(300)"><path d="M 0 -4 L 4 -24 L 0 -28 L -4 -24 Z"/></g>
  </g>
  <polygon points="0,-2.5 2.17,-1.25 2.17,1.25 0,2.5 -2.17,1.25 -2.17,-1.25"
           fill="none" stroke="#4FBF7B" stroke-width="0.6"/>
  <circle cx="0" cy="0" r="0.5" fill="#4FBF7B"/>
</svg>
