<?xml version="1.0" encoding="UTF-8"?>
<svg xmlns="http://www.w3.org/2000/svg" viewBox="0 0 200 200" width="200" height="200" role="img" aria-label="Tim Raysby brand mark on charcoal background">
  <title>Tim Raysby</title>
  <desc>Six-point Nexus Green node-burst asterisk on a charcoal circle background</desc>
  <circle cx="100" cy="100" r="100" fill="#0F1110"/>
  <g transform="translate(100, 100)" fill="#4FBF7B">
    <path d="M 0 -16 L 20 -96 L 0 -120 L -20 -96 Z"/>
    <g transform="rotate(60)"><path d="M 0 -16 L 20 -96 L 0 -120 L -20 -96 Z"/></g>
    <g transform="rotate(120)"><path d="M 0 -16 L 20 -96 L 0 -120 L -20 -96 Z"/></g>
    <g transform="rotate(180)"><path d="M 0 -16 L 20 -96 L 0 -120 L -20 -96 Z"/></g>
    <g transform="rotate(240)"><path d="M 0 -16 L 20 -96 L 0 -120 L -20 -96 Z"/></g>
    <g transform="rotate(300)"><path d="M 0 -16 L 20 -96 L 0 -120 L -20 -96 Z"/></g>
  </g>
  <polygon points="100,90 108.66,95 108.66,105 100,110 91.34,105 91.34,95"
           fill="none" stroke="#4FBF7B" stroke-width="2.4"/>
  <circle cx="100" cy="100" r="2" fill="#4FBF7B"/>
</svg>
